<svg width="358" height="113" viewBox="0 0 358 113" fill="none" xmlns="http://www.w3.org/2000/svg">
<path d="M26.2969 79.0156C28.7969 79.0156 30.8281 78.3281 32.3906 76.9531C33.9531 75.5781 34.7656 73.75 34.8281 71.4688H47.5312C47.5 74.9062 46.5625 78.0625 44.7188 80.9375C42.875 83.7812 40.3438 86 37.125 87.5938C33.9375 89.1562 30.4062 89.9375 26.5312 89.9375C19.2812 89.9375 13.5625 87.6406 9.375 83.0469C5.1875 78.4219 3.09375 72.0469 3.09375 63.9219V63.0312C3.09375 55.2188 5.17188 48.9844 9.32812 44.3281C13.4844 39.6719 19.1875 37.3438 26.4375 37.3438C32.7812 37.3438 37.8594 39.1562 41.6719 42.7812C45.5156 46.375 47.4688 51.1719 47.5312 57.1719H34.8281C34.7656 54.5469 33.9531 52.4219 32.3906 50.7969C30.8281 49.1406 28.7656 48.3125 26.2031 48.3125C23.0469 48.3125 20.6562 49.4688 19.0312 51.7812C17.4375 54.0625 16.6406 57.7812 16.6406 62.9375V64.3438C16.6406 69.5625 17.4375 73.3125 19.0312 75.5938C20.625 77.875 23.0469 79.0156 26.2969 79.0156ZM83.7656 50.9844C81.9219 50.7344 80.2969 50.6094 78.8906 50.6094C73.7656 50.6094 70.4062 52.3438 68.8125 55.8125V89H55.2656V38.2812H68.0625L68.4375 44.3281C71.1562 39.6719 74.9219 37.3438 79.7344 37.3438C81.2344 37.3438 82.6406 37.5469 83.9531 37.9531L83.7656 50.9844ZM112.734 89.9375C105.297 89.9375 99.2344 87.6562 94.5469 83.0938C89.8906 78.5312 87.5625 72.4531 87.5625 64.8594V63.5469C87.5625 58.4531 88.5469 53.9062 90.5156 49.9062C92.4844 45.875 95.2656 42.7812 98.8594 40.625C102.484 38.4375 106.609 37.3438 111.234 37.3438C118.172 37.3438 123.625 39.5312 127.594 43.9062C131.594 48.2812 133.594 54.4844 133.594 62.5156V68.0469H101.297C101.734 71.3594 103.047 74.0156 105.234 76.0156C107.453 78.0156 110.25 79.0156 113.625 79.0156C118.844 79.0156 122.922 77.125 125.859 73.3438L132.516 80.7969C130.484 83.6719 127.734 85.9219 124.266 87.5469C120.797 89.1406 116.953 89.9375 112.734 89.9375ZM111.188 48.3125C108.5 48.3125 106.312 49.2188 104.625 51.0312C102.969 52.8438 101.906 55.4375 101.438 58.8125H120.281V57.7344C120.219 54.7344 119.406 52.4219 117.844 50.7969C116.281 49.1406 114.062 48.3125 111.188 48.3125ZM170.719 89C170.094 87.7812 169.641 86.2656 169.359 84.4531C166.078 88.1094 161.812 89.9375 156.562 89.9375C151.594 89.9375 147.469 88.5 144.188 85.625C140.938 82.75 139.312 79.125 139.312 74.75C139.312 69.375 141.297 65.25 145.266 62.375C149.266 59.5 155.031 58.0469 162.562 58.0156H168.797V55.1094C168.797 52.7656 168.188 50.8906 166.969 49.4844C165.781 48.0781 163.891 47.375 161.297 47.375C159.016 47.375 157.219 47.9219 155.906 49.0156C154.625 50.1094 153.984 51.6094 153.984 53.5156H140.438C140.438 50.5781 141.344 47.8594 143.156 45.3594C144.969 42.8594 147.531 40.9062 150.844 39.5C154.156 38.0625 157.875 37.3438 162 37.3438C168.25 37.3438 173.203 38.9219 176.859 42.0781C180.547 45.2031 182.391 49.6094 182.391 55.2969V77.2812C182.422 82.0938 183.094 85.7344 184.406 88.2031V89H170.719ZM159.516 79.5781C161.516 79.5781 163.359 79.1406 165.047 78.2656C166.734 77.3594 167.984 76.1562 168.797 74.6562V65.9375H163.734C156.953 65.9375 153.344 68.2812 152.906 72.9688L152.859 73.7656C152.859 75.4531 153.453 76.8438 154.641 77.9375C155.828 79.0312 157.453 79.5781 159.516 79.5781ZM209.016 25.8125V38.2812H217.688V48.2188H209.016V73.5312C209.016 75.4062 209.375 76.75 210.094 77.5625C210.812 78.375 212.188 78.7812 214.219 78.7812C215.719 78.7812 217.047 78.6719 218.203 78.4531V88.7188C215.547 89.5312 212.812 89.9375 210 89.9375C200.5 89.9375 195.656 85.1406 195.469 75.5469V48.2188H188.062V38.2812H195.469V25.8125H209.016Z" fill="#17182C"/>
<path d="M306.703 50.9844C304.859 50.7344 303.234 50.6094 301.828 50.6094C296.703 50.6094 293.344 52.3438 291.75 55.8125V89H278.203V38.2812H291L291.375 44.3281C294.094 39.6719 297.859 37.3438 302.672 37.3438C304.172 37.3438 305.578 37.5469 306.891 37.9531L306.703 50.9844ZM340.734 74.9844C340.734 73.3281 339.906 72.0312 338.25 71.0938C336.625 70.125 334 69.2656 330.375 68.5156C318.312 65.9844 312.281 60.8594 312.281 53.1406C312.281 48.6406 314.141 44.8906 317.859 41.8906C321.609 38.8594 326.5 37.3438 332.531 37.3438C338.969 37.3438 344.109 38.8594 347.953 41.8906C351.828 44.9219 353.766 48.8594 353.766 53.7031H340.219C340.219 51.7656 339.594 50.1719 338.344 48.9219C337.094 47.6406 335.141 47 332.484 47C330.203 47 328.438 47.5156 327.188 48.5469C325.938 49.5781 325.312 50.8906 325.312 52.4844C325.312 53.9844 326.016 55.2031 327.422 56.1406C328.859 57.0469 331.266 57.8438 334.641 58.5312C338.016 59.1875 340.859 59.9375 343.172 60.7812C350.328 63.4062 353.906 67.9531 353.906 74.4219C353.906 79.0469 351.922 82.7969 347.953 85.6719C343.984 88.5156 338.859 89.9375 332.578 89.9375C328.328 89.9375 324.547 89.1875 321.234 87.6875C317.953 86.1562 315.375 84.0781 313.5 81.4531C311.625 78.7969 310.688 75.9375 310.688 72.875H323.531C323.656 75.2812 324.547 77.125 326.203 78.4062C327.859 79.6875 330.078 80.3281 332.859 80.3281C335.453 80.3281 337.406 79.8438 338.719 78.875C340.062 77.875 340.734 76.5781 340.734 74.9844Z" fill="#17182C"/>
<path d="M247 37C252.808 37 258.172 38.9044 262.5 42.123C259.251 44.5389 256.587 47.6959 254.755 51.3428C252.535 49.8629 249.868 49 247 49C239.268 49 233 55.268 233 63C233 70.732 239.268 77 247 77C249.868 77 252.535 76.1363 254.755 74.6562C256.587 78.3033 259.251 81.46 262.5 83.876C258.172 87.0949 252.808 89 247 89C232.641 89 221 77.3594 221 63C221 48.6406 232.641 37 247 37ZM270.244 51.3428C272.006 54.8492 273 58.8083 273 63C273 67.1914 272.006 71.15 270.244 74.6562C266.48 72.1467 264 67.8633 264 63C264 58.1366 266.48 53.8522 270.244 51.3428Z" fill="url(#paint0_linear_1420_14)"/>
<defs>
<linearGradient id="paint0_linear_1420_14" x1="247" y1="37" x2="247" y2="89" gradientUnits="userSpaceOnUse">
<stop stop-color="#3FEAE9"/>
<stop offset="1" stop-color="#7E64DE"/>
</linearGradient>
</defs>
</svg>
